<svg width="546" height="149" viewBox="0 0 546 149" fill="none" xmlns="http://www.w3.org/2000/svg">
<g clip-path="url(#clip0_439_84)">
<path d="M230.12 24.2499C230.12 24.2499 228.68 20.5899 230.38 17.5999C232.08 14.6099 235.79 14.4099 237.49 14.4599C239.19 14.5099 240.07 14.6099 240.68 14.1999C241.29 13.7899 241.45 12.9099 242.43 13.5799C243.41 14.2499 243.56 15.4899 243.67 16.2099C243.77 16.9299 243.57 18.4799 243.57 18.4799C243.57 18.4799 245.42 19.2399 247.22 18.6799C249.02 18.1099 249.91 17.1399 251.2 17.5099C252.49 17.8699 251.64 21.1599 250.43 22.7099C248.99 24.5699 247.66 25.2199 246.89 26.1999C246.12 27.1799 245.95 27.8199 244.87 28.2799C243.77 28.7299 230.12 24.2499 230.12 24.2499V24.2499Z" fill="#FFE365"/>
<path d="M232.54 19.8199C233.17 20.5299 234.34 19.7699 235.73 18.8399C237.12 17.9099 238.72 17.2899 238.36 16.4199C238 15.5399 235.53 15.7499 234.19 16.5699C233.19 17.1899 231.71 18.8899 232.54 19.8199Z" fill="white"/>
<path d="M225.58 30.2299C225.58 30.2299 223.16 31.1999 223.11 36.1499C223.08 39.3099 225.94 44.5599 235.37 45.0699C245.86 45.6399 248.56 40.7899 248.87 36.8799C249.18 32.9599 246.91 29.1999 243.77 27.6099C240.63 26.0199 230.89 26.7899 230.89 26.7899L225.58 30.2299V30.2299Z" fill="#474C4F"/>
<path d="M224.14 30.59C224.14 30.59 223.69 29.35 223.45 28.63C223.32 28.24 222.77 26.85 223.39 26.12C224.01 25.4 225.91 26.75 227.03 26.05C228.23 25.29 227.27 22.63 228.7 21.83C230.19 20.99 231.21 24.22 233.36 23.99C235.74 23.74 235.71 20.51 237.41 20.46C239.11 20.41 239.07 24.05 240.93 24.4C242.53 24.7 244.21 22.49 245.63 23.58C246.74 24.43 245.62 26.45 246.65 27.48C247.68 28.51 249.42 27.61 250.03 28.34C250.8 29.27 248.55 32.27 248.55 32.27L240.53 26.41L228.99 26.98L224.14 30.59V30.59Z" fill="#42A18E"/>
<path d="M223.09 36.2101C223.09 36.2101 223.5 33.8101 225.8 31.3501C227.89 29.1201 230.96 27.0501 236.25 27.3501C241.41 27.6501 244.97 29.9901 246.89 32.4501C248.63 34.6901 248.87 36.8701 248.87 36.8701C248.87 36.8701 251.48 25.0401 236.1 24.5101C221.13 24.0101 223.09 36.2101 223.09 36.2101V36.2101Z" fill="#ADD4C1"/>
<path d="M276.31 112.06C276.31 112.06 277.23 109.41 277.99 108.24C279.23 106.33 280.51 105.63 280.51 105.63L280.98 87.16L272.03 79.42C272.03 79.42 255.96 71.83 256.27 71.12C256.55 70.45 257.84 70.87 259.2 71.49C260.23 71.95 275.87 77.95 275.87 77.95L280.81 73.36C280.81 73.36 271 53.55 271.32 53.35C271.6 53.18 272.09 53.06 272.69 53.87C273.09 54.41 284.64 72.65 284.64 72.65L290.7 71.86C290.7 71.86 293.88 51.15 294.59 51.18C295.68 51.23 295.02 57.21 294.75 61.29C294.52 64.74 293.41 74.84 293.41 74.84L297.7 76.33C297.7 76.33 311.77 61.66 312.05 61.84C312.33 62.03 312.76 62.51 311.92 63.72C311.08 64.93 301.27 78.79 301.71 79.27C302.05 79.66 302.53 80.59 303.04 81.36C303.6 82.2 306.1 83.23 306.1 83.23L322.14 76.51C322.14 76.51 322.87 77.6 321.1 78.44C319.33 79.28 306.06 86.42 306.06 86.42C306.06 86.42 307.56 89 307.3 93C307.04 97.01 306.14 98.62 306.14 98.62C306.14 98.62 310.28 103.14 310.6 106.83C310.92 110.51 310.3 114.37 310.3 114.37L310.39 115.38L323.03 120.78C323.03 120.78 324.66 121.87 325.17 122.62C325.68 123.37 328.16 127.08 329.73 129.52C331.3 131.96 333.37 136.26 333.1 136.54C332.83 136.82 332.35 136.8 331.67 136.8H291.47L271.37 133.51L276.31 112.06V112.06Z" fill="#25836E"/>
<path d="M317.36 125.48C316.66 123.03 315.64 120.31 315.7 119.67C315.76 119.03 317.89 117.83 317.89 117.83C317.89 117.83 314.57 115.03 313.4 114.63C312.23 114.22 310.25 114.16 310.25 114.16C310.25 114.16 310.31 112.76 308.74 110.96C307.17 109.16 305.54 105.31 305.54 105.31L304.03 101.81L302.46 110.78C302.46 110.78 302.65 111.77 302.63 112.41C302.59 113.74 301.7 114.04 301.7 114.04C301.7 114.04 293.69 114.39 293.15 114.09C292.54 113.75 291.44 113.56 291.56 111.83C291.63 110.84 292.56 109.81 293.28 108.03C293.78 106.8 293.4 104.74 292.23 103.69C291.06 102.64 289.58 101.7 289.34 100.3C289.11 98.8999 289.81 97.7899 291.44 96.0499C293.07 94.2999 293.59 92.4699 293.15 90.4599C292.9 89.3199 292.87 88.4699 293.28 87.8599C293.87 86.9999 294.76 87.6499 295.75 88.9299C296.73 90.2099 298.51 92.7299 299.97 93.0299C301.43 93.3299 302.87 92.2499 302.83 89.5299C302.78 86.6799 302.42 83.5799 300.02 80.0299C299.41 79.1299 300.75 77.5299 300.75 77.5299C300.75 77.5299 312.09 62.3599 312.16 62.0799C312.22 61.7999 311.38 61.4999 310.92 61.9099C310.5 62.2899 299.63 73.2599 297.84 75.0599C296.3 73.7499 294.5 72.5699 292.44 71.7899C292.4 71.7699 292.37 71.7599 292.37 71.7599L294.67 51.2199C294.67 51.2199 293.95 50.6499 293.28 52.5499C292.69 54.2399 289.66 67.9099 288.99 70.9399C287.3 70.7299 285.48 70.7999 283.53 71.2499C283.07 71.3599 282.64 71.4799 282.22 71.6099L271.3 53.3099C271.3 53.3099 270.68 53.4599 271.56 55.5699C272.34 57.4499 277.37 70.5599 278.45 73.3799C276.32 74.8199 274.92 76.6899 274 78.5899C273.84 78.9399 273.75 79.1899 273.75 79.1899L256.26 71.0999C256.26 71.0999 255.77 71.8699 256.85 72.5399C257.83 73.1499 270.48 80.7099 272.77 82.1099C272.06 85.1999 272.3 88.2899 272.3 88.2899L272.36 89.2299L273.44 95.8499L275.07 103.23C275.07 103.23 275.81 104.43 277.05 104.74C278.28 105.05 279.15 104.94 279.15 104.94C279.15 104.94 280.11 106.18 280.64 107.33C281.14 108.43 281.74 110.12 280.88 111.11C280.02 112.1 277.39 111.97 277.39 111.97C277.39 111.97 274.42 109.27 274.16 109.13C273.9 109 267.37 106.76 267.37 106.76L267.44 105.18C267.44 105.18 267.04 102.08 266.12 100.43C265.2 98.7799 263.48 97.5299 263.48 97.5299C263.48 97.5299 263.28 94.6299 261.5 93.5699C259.72 92.5099 259.26 92.1899 259.26 92.1899C259.26 92.1899 259.06 87.6399 257.28 83.9499C255.5 80.2599 253.32 76.8899 250.49 68.7799C247.65 60.6699 246.8 57.3699 246.27 54.2699C245.74 51.1699 244.47 49.0299 243.3 47.2099C242.11 45.3599 240.51 43.0799 240.51 43.0799C240.51 43.0799 242.09 41.6599 242.25 38.8299C242.39 36.4199 240.5 32.9299 235.66 32.7599C230.81 32.5899 228.72 35.7699 228.64 38.7899C228.57 41.2799 230.55 42.8099 230.55 42.8099C230.55 42.8099 227.9 48.2399 227.96 49.2999C228.03 50.3599 228.83 51.1899 229.16 51.5199C229.49 51.8499 231 53.2499 231 53.2499L230.78 63.6199C230.78 63.6199 231.56 64.6099 233.71 64.4599C235.68 64.3199 236.74 61.5199 236.74 61.5199C236.74 61.5199 237.08 67.0799 237.74 72.8799C238.4 78.6799 240.31 86.2199 240.31 86.2199L248.16 102.38L246.38 117.02L248.93 131.86C248.93 131.86 248.66 135.92 249.04 136.63C249.24 137.01 249.79 136.97 250.25 136.97C250.71 136.97 294.82 136.82 294.82 136.82C294.82 136.82 294.01 135.19 292.21 134.78C290.4 134.37 289.12 134.95 288.48 134.02C287.84 133.09 289.99 130.7 290.34 130.35C290.69 130 305.25 114.56 305.25 114.56C305.25 114.56 307.35 114.15 307.99 115.38C308.63 116.6 307.29 119.81 307.87 123.01C308.45 126.21 310.2 136.82 310.2 136.82H321.09C321.09 136.82 318.06 127.93 317.36 125.48V125.48Z" fill="#42A18E"/>
<path d="M272.48 88.1799C272.48 88.1799 259.85 93.0899 260.18 94.0099C260.51 94.9299 273.3 92.3999 273.3 92.3999L272.48 88.1799ZM273.44 95.8599C273.23 95.6899 264.34 103.61 264.74 104.07C265.26 104.67 274.76 100.18 274.76 100.18L273.44 95.8599V95.8599Z" fill="#42A18E"/>
<path d="M233.46 38.84C233.18 38.51 232.2 38.18 232.34 37.39C232.48 36.59 233.37 35.99 235.24 36.08C237.11 36.17 239.04 37.8 239.97 39.26C240.37 39.88 240.48 41.97 239.6 42.4C238.7 42.81 233.46 38.84 233.46 38.84V38.84Z" fill="#25836E"/>
<path d="M237.02 45.11C237.21 45.86 237.03 48.14 237.35 49.84C237.73 51.86 238.52 52.84 239.55 52.79C241.8 52.7 240.73 44.88 240.4 43.95C240.07 43.01 238.43 40.65 237.3 39.62C236.81 39.17 233.35 37.73 232.89 38.12C232.34 38.6 232.58 39.79 234.81 41.73C236.37 43.08 237.02 45.11 237.02 45.11V45.11ZM233.46 42.44C233.55 43.52 232.48 43.66 232.48 43.66C232.48 43.66 232.95 44.27 232.71 44.97C232.48 45.67 231.07 46 231.07 46C231.07 46 231.66 46.35 231.48 46.9C231.19 47.83 230.19 47.73 229.33 48.35C228.73 48.79 228.04 49.82 228.04 49.82C228.04 49.82 226.94 48.64 227.41 46.33C227.73 44.75 228.29 42.34 228.82 41.88C230.27 40.61 233.34 41.13 233.46 42.44V42.44ZM229.85 52.33C229.85 52.33 230.04 50.17 231.49 49.33C233.18 48.35 233.83 49.38 234.07 49.61C234.31 49.84 233.98 60.11 233.88 60.77C233.79 61.43 232.4 64.43 231.14 63.91C229.87 63.39 229.71 59.22 229.76 56.64C229.8 54.06 229.85 52.33 229.85 52.33ZM323.14 136.8C323.33 136.99 323.8 136.95 324.15 136.8C324.5 136.65 325.59 131.37 325.42 127.01C325.27 123.05 324.96 122.44 324.96 122.44C324.96 122.44 323.29 120.26 320.7 118.02C318.45 116.08 313.32 114.38 313.3 114.59C313.25 115.15 316.45 117.24 318.46 121.8C320.28 125.93 321.72 130.81 322.08 132.43C322.43 134.06 322.89 136.55 323.14 136.8V136.8ZM305.07 98.94C305.12 99.19 304.57 100.57 304.71 102.07C304.86 103.74 305.8 105.58 305.75 105.73C305.7 105.88 305.09 106.08 304.48 107.66C303.87 109.23 304.37 111.76 303.84 111.79C302.19 111.88 299.38 107.67 299.64 103.31C300.04 96.71 305.07 98.94 305.07 98.94V98.94ZM302.66 89.94C303.05 89.82 303.27 91.57 302.43 92.14C301.6 92.72 299.79 92.31 299.03 91.34C297.8 89.78 291.2 75.15 279.61 81.47C275.54 83.69 274.47 87.61 274.4 92C274.32 97.31 275.81 103.13 275.64 103.45C275.32 104.03 274.77 102.84 274.35 101.65C273.9 100.4 272.79 96.39 272.78 91.36C272.77 86.63 274.21 81.57 279.22 79.16C291.59 73.2 299.21 86.85 299.73 88C300.25 89.16 301.18 90.39 302.66 89.94V89.94ZM240.51 57.54C239.48 57.93 239.62 73.81 239.25 81.65C239.25 81.68 239.7 84.57 240.78 88.43C242.02 92.84 246.63 105.88 246.47 106.97C246.3 108.06 243.5 114.33 243 115.84C242.5 117.34 241.9 118.98 242.49 120.89C242.78 121.84 243.34 122.44 243.34 122.44C243.34 122.44 241.59 126.53 242 128.62C242.42 130.71 244.33 131.64 246.31 132.13C247.58 132.45 249.94 131.96 249.61 130.63C249.28 129.29 247.14 123.91 247.64 121.16C248.21 118.03 248.86 115.59 249.7 113.42C250.54 111.25 255.47 99.22 256.64 97.54C257.81 95.87 260.24 96.1 260.4 95.44C260.57 94.77 255.4 91.62 252.64 89.28C249.88 86.94 247.5 84.2 247.5 83.83C247.48 83.04 247.84 70.75 247.34 69.16C246.84 67.57 245.45 64.3 243.78 61.5C242.33 59.1 241.6 57.12 240.51 57.54V57.54Z" fill="#ADD4C1"/>
<path d="M258.58 104.95C258.18 104.64 256.28 105.48 254.79 110.37C253.52 114.55 252.1 122.15 254.07 122.08C255.05 122.05 256.75 117.75 258.29 115.46C259.51 113.64 260.98 111.72 260.88 110.9C260.78 110.08 258.38 110.52 258.43 109.27C258.51 107.48 259.02 105.29 258.58 104.95V104.95ZM300.28 129.27C297.95 127.56 296.84 127.28 296.84 127.28C296.84 127.28 298.78 124.27 300.77 121.9C302.76 119.52 307.41 114.97 307.27 114.43C307.12 113.9 303.88 113.27 297.14 113.41C290.4 113.56 285.55 113.85 284.59 113.65C283.62 113.46 281.29 111.47 279.26 111.18C277.22 110.89 276.35 110.7 276.35 110.7C276.35 110.7 275.57 109.49 272.18 107.84C269.76 106.67 268.11 106.39 268.11 106.39C268.11 106.39 267.85 105.15 267.47 104.77C267.28 104.58 265.84 106.28 264.9 107.91C263.96 109.54 263.46 111.24 263.12 111.73C262.78 112.22 262.02 112.64 258.96 117.59C255.9 122.54 253.06 128.85 251.7 132.56C250.34 136.26 250.25 136.98 250.25 136.98L253.44 136.95C253.44 136.95 253.89 133.32 256.12 127.92C258.35 122.51 260.77 119 261.03 119.15C261.29 119.3 259.57 126.78 258.59 129.28C257.61 131.77 255.16 136.96 255.16 136.96H262.21C262.21 136.96 267.71 130.64 272.36 126.37C277.01 122.1 282.36 118.84 284.86 117.66C287.35 116.49 289.57 115.91 289.6 116.36C289.63 116.81 282.3 121.24 279.12 123.96C275.95 126.68 266.33 136.94 266.33 136.94L276 136.92C276 136.92 278.34 131.93 280.04 129.14C281.74 126.34 283.93 123.25 284.31 123.21C284.69 123.17 283.21 128.34 281.84 131.6C280.37 135.09 279.23 136.92 279.23 136.92L284.88 136.89C284.88 136.89 287.07 130.65 288.54 126.68C290.01 122.71 291.07 118.94 291.41 118.64C291.75 118.34 295.23 117.39 297.31 116.67C299.39 115.95 301.28 115.01 301.62 115.35C301.96 115.69 295.2 123.63 293.36 126.02C291.31 128.67 287.63 132.65 288.26 133.18C288.89 133.71 290.34 131.87 293.06 132.11C295.78 132.35 300.23 136.85 300.23 136.85L307.44 136.86C307.44 136.83 303.1 131.34 300.28 129.27V129.27ZM269.39 113.03C272.57 109.02 274.03 109.42 274.03 109.42C274.03 109.42 274.39 111.56 271.54 114.63C268.99 117.37 265.57 120.44 265.3 119.99C265.04 119.57 266.87 116.21 269.39 113.03ZM271.8 124.34C270.46 125.42 263.34 129.99 262.91 129.31C262.56 128.76 267.56 122.85 270.32 121.06C273.08 119.27 283.19 116.82 283.42 117.29C283.61 117.71 273.3 123.14 271.8 124.34V124.34ZM289.36 88.8401C287.15 88.9501 286.29 90.4001 285.26 90.2501C284.57 90.1501 282.14 87.7701 282.32 86.6101C282.49 85.5301 283.85 85.0001 285.96 85.0001C287.54 85.0001 288.19 85.4601 289.02 85.9501C289.6 86.3001 289.77 85.2101 289.31 84.7501C288.44 83.8801 287.2 83.4701 285.2 83.3701C283.21 83.2801 282.3 83.8201 280.41 83.5401C279.83 84.7401 279.21 85.0601 278.34 86.1101C277.52 87.0901 277.04 87.6501 276.31 89.2601C275.73 90.5401 275.66 92.3901 276.39 92.2001C277.12 92.0101 277.2 90.2201 277.53 89.4701C278.25 87.8401 278.91 87.7601 279.57 87.9801C279.94 88.1001 280.18 89.2201 279.9 89.9701C279.77 90.3101 279.34 90.6001 278.91 91.3401C278.22 92.5101 278.5 93.0901 278.08 94.2401C277.83 94.9201 276.92 96.0801 277.05 97.2601C277.26 99.2501 277.72 99.5901 278.08 100.61C278.46 101.67 278.7 102.93 279.45 103.18C280.25 103.45 280.82 101.98 282.43 101.36C284.75 100.46 285.81 100.91 286.9 100.21C288.37 99.2701 289.23 97.0701 290.3 96.0601C292 94.4501 293.67 92.9501 293.57 91.4201C293.47 89.5801 291.57 88.7301 289.36 88.8401V88.8401ZM283.11 98.2801C281.99 98.8501 280.62 99.6301 280.13 98.7801C279.55 97.7701 279.92 96.2101 279.92 96.2101C279.92 96.2101 279.84 95.0601 279.84 94.4701C279.84 93.3601 279.95 91.9501 280.63 91.8201C281.29 91.7001 283.65 92.1101 283.94 92.7701C284.38 93.7701 283.89 94.4101 283.89 94.4101C283.89 94.4101 285.39 94.5501 285.55 95.7901C285.73 97.1101 284.62 97.5101 283.11 98.2801V98.2801Z" fill="#ADD4C1"/>
<path d="M283.61 95.2201C283.17 95.1001 282.79 95.3901 282.2 95.7601C281.71 96.0701 281.28 96.4001 281.15 96.7401C280.92 97.3601 281.64 97.9101 283.03 97.1201C284.25 96.4101 284.2 95.3801 283.61 95.2201Z" fill="#ADD4C1"/>
<path d="M301.17 86.8C301.3 87 301.4 87.16 301.46 87.28C302.22 88.75 303.61 89.86 304.04 89.36C304.35 89 303.89 87.46 303.28 85.92L301.17 86.8ZM299.28 79.33C296.59 76.27 291.99 72.77 285.66 73.05C275.7 73.49 273.07 82.9 274.12 83.17C274.88 83.37 276.02 76.83 285.76 76.54C290.11 76.41 294.12 79.12 297.01 81.88L299.28 79.33V79.33ZM301.65 82.47C301.41 82.1 301.04 81.55 300.56 80.92L298.19 83.1C299.02 83.99 299.73 84.84 300.27 85.55L302.51 84.16C302.16 83.38 301.84 82.75 301.65 82.47V82.47Z" fill="#484A4E"/>
<path d="M304.74 84.25L322.11 76.52C322.11 76.52 321.79 75.72 320.81 75.99C319.85 76.25 303.02 81.37 303.02 81.37C303.02 81.37 303.54 82.14 303.89 82.73C304.23 83.33 304.74 84.25 304.74 84.25V84.25ZM281.35 72.55L282.47 77.76L284.34 77.26L283.83 72.14L281.35 72.55ZM288.65 71.76L287.73 77.46L289.5 77.76L291.12 72.09L288.65 71.76ZM277.76 75.43L278.72 79.18L277.2 80.04L275.53 76.85L277.76 75.43ZM295.53 74.27L292.54 79.38L293.91 80.24L297.45 75.74L295.53 74.27Z" fill="#42A18E"/>
<line x1="17.9905" y1="139.538" x2="553.99" y2="137.5" stroke="#EDFDFB" stroke-width="5"/>
<path d="M76.8182 57.1818V127H68.6364L30.5909 72.1818H29.9091V127H21.4545V57.1818H29.6364L67.8182 112.136H68.5V57.1818H76.8182ZM114.599 128.091C109.554 128.091 105.202 126.977 101.543 124.75C97.9062 122.5 95.0994 119.364 93.1222 115.341C91.1676 111.295 90.1903 106.591 90.1903 101.227C90.1903 95.8636 91.1676 91.1364 93.1222 87.0455C95.0994 82.9318 97.8494 79.7273 101.372 77.4318C104.918 75.1136 109.054 73.9545 113.781 73.9545C116.509 73.9545 119.202 74.4091 121.861 75.3182C124.52 76.2273 126.94 77.7045 129.122 79.75C131.304 81.7727 133.043 84.4545 134.338 87.7955C135.634 91.1364 136.281 95.25 136.281 100.136V103.545H95.9176V96.5909H128.099C128.099 93.6364 127.509 91 126.327 88.6818C125.168 86.3636 123.509 84.5341 121.349 83.1932C119.213 81.8523 116.69 81.1818 113.781 81.1818C110.577 81.1818 107.804 81.9773 105.463 83.5682C103.145 85.1364 101.361 87.1818 100.111 89.7045C98.8608 92.2273 98.2358 94.9318 98.2358 97.8182V102.455C98.2358 106.409 98.9176 109.761 100.281 112.511C101.668 115.239 103.588 117.318 106.043 118.75C108.497 120.159 111.349 120.864 114.599 120.864C116.713 120.864 118.622 120.568 120.327 119.977C122.054 119.364 123.543 118.455 124.793 117.25C126.043 116.023 127.009 114.5 127.69 112.682L135.463 114.864C134.645 117.5 133.27 119.818 131.338 121.818C129.406 123.795 127.02 125.341 124.179 126.455C121.338 127.545 118.145 128.091 114.599 128.091ZM160.384 127L144.429 74.6364H152.884L164.202 114.727H164.747L175.929 74.6364H184.52L195.565 114.591H196.111L207.429 74.6364H215.884L199.929 127H192.02L180.565 86.7727H179.747L168.293 127H160.384ZM329.611 57.1818H339.293L358.656 89.7727H359.474L378.838 57.1818H388.52L363.293 98.2273V127H354.838V98.2273L329.611 57.1818ZM412.23 128.091C407.503 128.091 403.355 126.966 399.787 124.716C396.241 122.466 393.469 119.318 391.469 115.273C389.491 111.227 388.503 106.5 388.503 101.091C388.503 95.6364 389.491 90.875 391.469 86.8068C393.469 82.7386 396.241 79.5795 399.787 77.3295C403.355 75.0795 407.503 73.9545 412.23 73.9545C416.957 73.9545 421.094 75.0795 424.639 77.3295C428.207 79.5795 430.98 82.7386 432.957 86.8068C434.957 90.875 435.957 95.6364 435.957 101.091C435.957 106.5 434.957 111.227 432.957 115.273C430.98 119.318 428.207 122.466 424.639 124.716C421.094 126.966 416.957 128.091 412.23 128.091ZM412.23 120.864C415.821 120.864 418.776 119.943 421.094 118.102C423.412 116.261 425.128 113.841 426.241 110.841C427.355 107.841 427.912 104.591 427.912 101.091C427.912 97.5909 427.355 94.3295 426.241 91.3068C425.128 88.2841 423.412 85.8409 421.094 83.9773C418.776 82.1136 415.821 81.1818 412.23 81.1818C408.639 81.1818 405.685 82.1136 403.366 83.9773C401.048 85.8409 399.332 88.2841 398.219 91.3068C397.105 94.3295 396.548 97.5909 396.548 101.091C396.548 104.591 397.105 107.841 398.219 110.841C399.332 113.841 401.048 116.261 403.366 118.102C405.685 119.943 408.639 120.864 412.23 120.864ZM448.239 127V74.6364H456.011V82.5455H456.557C457.511 79.9545 459.239 77.8523 461.739 76.2386C464.239 74.625 467.057 73.8182 470.193 73.8182C470.784 73.8182 471.523 73.8295 472.409 73.8523C473.295 73.875 473.966 73.9091 474.42 73.9545V82.1364C474.148 82.0682 473.523 81.9659 472.545 81.8295C471.591 81.6705 470.58 81.5909 469.511 81.5909C466.966 81.5909 464.693 82.125 462.693 83.1932C460.716 84.2386 459.148 85.6932 457.989 87.5568C456.852 89.3977 456.284 91.5 456.284 93.8636V127H448.239ZM491.457 107.909L491.321 97.9545H492.957L515.866 74.6364H525.821L501.412 99.3182H500.73L491.457 107.909ZM483.957 127V57.1818H492.003V127H483.957ZM517.23 127L496.776 101.091L502.503 95.5L527.457 127H517.23Z" fill="#EDFDFB"/>
</g>
<defs>
<clipPath id="clip0_439_84">
<rect width="546" height="149" fill="white"/>
</clipPath>
</defs>
</svg>
