<svg width="89" height="61" viewBox="0 0 89 61" fill="none" xmlns="http://www.w3.org/2000/svg">
<path d="M62.4635 20.2164C60.3452 20.8959 59.2529 22.7645 59.3191 25.5844C59.3853 27.3172 58.955 28.6762 55.1818 38.6648C51.0776 49.6727 50.3826 52.2548 51.4417 52.6625C51.6403 52.7644 55.1487 51.7112 59.1867 50.3182L66.5346 47.8041L67.0641 48.6195C67.3951 49.1631 67.8916 49.4349 68.5205 49.4349C69.6127 49.4349 70.043 48.9932 70.374 47.4983C70.5726 46.4111 70.6057 46.4111 78.2514 43.795C87.221 40.7373 87.5851 40.6014 88.2802 39.2084C89.2069 37.3738 88.9752 35.4032 87.6182 33.5006C83.9112 28.3364 76.2655 22.7645 70.374 20.9299C67.7592 20.0805 63.8536 19.7407 62.4635 20.2164ZM67.8254 21.7792C71.1683 22.4927 74.4782 23.9197 77.5232 25.9582C79.9394 27.6229 84.4408 31.598 84.4408 32.1076C84.4408 32.2435 83.8781 32.4474 83.183 32.5833C81.826 32.7871 80.7007 33.7724 80.1711 35.1994L79.8732 36.0827L77.7218 33.9423C73.3528 29.5595 68.2888 27.0454 62.1987 26.162C60.6762 25.9582 60.61 25.9242 60.61 24.837C60.61 23.5799 61.636 22.0171 62.7283 21.5754C63.7874 21.1337 65.012 21.1677 67.8254 21.7792ZM65.4092 28.2685C68.1895 28.9819 71.6648 30.7147 74.081 32.5833C76.4641 34.4519 79.6084 37.8834 79.2112 38.2911C79.0788 38.427 77.0267 39.2424 74.6768 40.0918C72.1613 41.0091 70.1423 41.9264 69.8113 42.3341C69.381 42.8437 69.2155 43.6591 69.2155 45.154C69.2155 48.4496 68.2888 49.0951 67.6268 46.3092C67.4282 45.4938 67.0641 44.5425 66.7994 44.2027C66.4353 43.6931 66.4022 43.3194 66.7001 42.6059C66.9648 41.8585 66.9317 41.3828 66.5015 40.4995C64.7804 36.8302 57.4987 37.8494 57.4987 41.7905C57.4987 43.0476 57.9952 43.829 59.4184 44.7124L60.4114 45.3239L59.4184 45.6976C57.0684 46.6489 53.1628 48.0419 53.0966 47.94C53.0304 47.906 54.1227 44.8822 55.5128 41.2469C56.9029 37.6116 58.1938 34.282 58.3593 33.8064L58.6903 32.957L59.1205 34.0442C59.6832 35.3692 61.7353 36.5244 63.4895 36.5244C65.0451 36.5244 67.3951 35.4372 67.8585 34.5538C69.4472 31.4961 66.2036 28.5403 62.2649 29.4236C61.4705 29.6275 60.5107 30.0352 60.1466 30.3409C59.617 30.8166 59.5508 30.8166 59.6832 30.4089C60.7755 27.2152 60.61 27.4191 62.0663 27.589C62.8275 27.6909 64.317 27.9967 65.4092 28.2685ZM65.7402 31.1903C68.2226 32.4814 66.4353 35.3692 63.3571 35.0635C60.6762 34.7917 59.4184 33.025 60.9078 31.632C62.1325 30.4768 64.0522 30.307 65.7402 31.1903ZM85.7647 33.9763C86.9562 34.6218 87.4196 35.4372 87.4196 37.034C87.4196 39.0385 86.5922 39.5482 78.4831 42.4021C74.3789 43.863 70.9035 45.0181 70.7712 45.0181C70.6057 45.0181 70.5395 44.6784 70.6057 44.2707C70.705 43.4553 71.3338 43.1495 78.2514 40.4315L81.495 39.1744L81.2964 37.8834C81.0316 36.2866 81.7267 34.7237 83.0506 34.0102C84.2091 33.3647 84.5732 33.3647 85.7647 33.9763ZM64.2508 40.0918C65.3761 40.7033 65.7402 41.6546 65.2437 42.6399C64.2177 44.6104 59.3853 44.3386 58.8557 42.2662C58.7234 41.7565 58.9219 41.2469 59.617 40.5674C60.7093 39.4462 62.629 39.2424 64.2508 40.0918ZM66.1705 45.8675C66.2367 46.479 65.4754 46.8188 59.5508 48.8573C55.8438 50.1144 52.6995 51.1336 52.5671 51.1336C52.4016 51.1336 52.3354 50.7939 52.4016 50.4201C52.4678 49.8086 53.4938 49.3329 58.7895 47.3624C62.2649 46.0713 65.3099 45.0861 65.5747 45.1201C65.8395 45.154 66.1043 45.4938 66.1705 45.8675Z" fill="#EDFDFB"/>
<path d="M2.37891 29V7.51562H7.02979C8.11214 7.51562 8.97477 7.68245 9.61768 8.01611C10.2606 8.34163 10.7244 8.86247 11.0093 9.57861C11.3022 10.2866 11.4487 11.2184 11.4487 12.374V13.0332C11.4487 14.1481 11.3022 15.0677 11.0093 15.792C10.7244 16.5081 10.2443 17.0086 9.56885 17.2935C10.1304 17.4806 10.578 17.8184 10.9116 18.3066C11.2534 18.7868 11.4976 19.3768 11.644 20.0767C11.7905 20.7684 11.8638 21.5293 11.8638 22.3594V22.9087C11.8556 24.341 11.6888 25.5088 11.3633 26.4121C11.0378 27.3073 10.5291 27.9624 9.8374 28.3774C9.14567 28.7925 8.24235 29 7.12744 29H2.37891ZM5.65039 26.4609H6.81006C7.24137 26.4609 7.58317 26.3674 7.83545 26.1802C8.09587 25.9849 8.28304 25.6634 8.39697 25.2158C8.5109 24.7682 8.56787 24.1579 8.56787 23.3848V21.6514C8.56787 20.6097 8.46615 19.8529 8.2627 19.3809C8.06738 18.9007 7.65641 18.6606 7.02979 18.6606H5.65039V26.4609ZM5.65039 16.207H6.85889C7.14372 16.207 7.37565 16.1663 7.55469 16.085C7.73372 16.0036 7.87207 15.8652 7.96973 15.6699C8.06738 15.4665 8.13249 15.1857 8.16504 14.8276C8.20573 14.4696 8.22607 14.0138 8.22607 13.4604V12.1665C8.22607 11.5887 8.17318 11.1493 8.06738 10.8481C7.96159 10.547 7.79883 10.3436 7.5791 10.2378C7.36751 10.132 7.09082 10.0791 6.74902 10.0791H5.65039V16.207ZM14.3906 29V7.51562H21.5928V10.3354H17.6621V16.5854H21.3975V19.3442H17.6621V26.1802H21.7393V29H14.3906ZM24.1562 29V7.51562H27.4277V26.2168H31.5659V29H24.1562ZM33.3359 29V7.51562H36.6074V26.2168H40.7456V29H33.3359ZM41.2461 29L44.3101 7.51562H48.6313L51.8906 29H48.8389L48.3262 25.167H44.8594L44.3955 29H41.2461ZM45.1768 22.5425H47.9844L46.5439 11.7515H46.4951L45.1768 22.5425Z" fill="#EDFDFB"/>
<path d="M3.02637 58V36.5156H6.76172C7.62435 36.5156 8.30794 36.6702 8.8125 36.9795C9.31706 37.2806 9.68734 37.7119 9.92334 38.2734C10.1675 38.8268 10.3221 39.486 10.3872 40.251C10.4604 41.0078 10.4971 41.842 10.4971 42.7534V42.9731C10.4971 44.4705 10.3913 45.7075 10.1797 46.6841C9.97624 47.6606 9.59782 48.389 9.04443 48.8691C8.49105 49.3493 7.69352 49.5894 6.65186 49.5894H4.84521V58H3.02637ZM4.84521 48.0513H6.77393C7.27848 48.0513 7.66504 47.8966 7.93359 47.5874C8.21029 47.2782 8.40153 46.7573 8.50732 46.0249C8.61312 45.2843 8.66602 44.2752 8.66602 42.9976V42.5825C8.67415 41.0119 8.56429 39.8604 8.33643 39.1279C8.10856 38.3955 7.61621 38.0293 6.85938 38.0293H4.84521V48.0513ZM13.4023 58V36.5156H15.2212V58H13.4023ZM18.3218 58V56.4741L22.46 37.9316H18.4316V36.5156H24.3154V37.7607L20.1528 56.5596H24.2422V58H18.3218ZM26.1099 58V56.4741L30.248 37.9316H26.2197V36.5156H32.1035V37.7607L27.9409 56.5596H32.0303V58H26.1099ZM33.2876 58L36.7422 36.5156H38.5977L42.4185 58H40.6606L39.9526 53.5811H35.6558L35.0088 58H33.2876ZM35.8877 52.2261H39.7085L37.731 39.9824H37.7065L35.8877 52.2261Z" fill="#EDFDFB"/>
<line x1="2.995" y1="33" x2="53.005" y2="33" stroke="#EDFDFB"/>
</svg>
