<svg width="578" height="144" viewBox="0 0 578 144" fill="none" xmlns="http://www.w3.org/2000/svg">
<path d="M388.008 97V24.8125H400.559C403.457 24.8125 405.754 25.332 407.449 26.3711C409.145 27.3828 410.389 28.832 411.182 30.7188C412.002 32.5781 412.521 34.793 412.74 37.3633C412.986 39.9062 413.109 42.709 413.109 45.7715V46.5098C413.109 51.541 412.754 55.6973 412.043 58.9785C411.359 62.2598 410.088 64.707 408.229 66.3203C406.369 67.9336 403.689 68.7402 400.189 68.7402H394.119V97H388.008ZM394.119 63.5723H400.6C402.295 63.5723 403.594 63.0527 404.496 62.0137C405.426 60.9746 406.068 59.2246 406.424 56.7637C406.779 54.2754 406.957 50.8848 406.957 46.5918V45.1973C406.984 39.9199 406.615 36.0508 405.85 33.5898C405.084 31.1289 403.43 29.8984 400.887 29.8984H394.119V63.5723ZM422.871 97V24.8125H428.982V97H422.871ZM439.4 97V91.873L453.305 29.5703H439.77V24.8125H459.539V28.9961L445.553 92.1602H459.293V97H439.4ZM465.568 97V91.873L479.473 29.5703H465.938V24.8125H485.707V28.9961L471.721 92.1602H485.461V97H465.568ZM489.686 97L501.293 24.8125H507.527L520.365 97H514.459L512.08 82.1523H497.643L495.469 97H489.686ZM498.422 77.5996H511.26L504.615 36.4609H504.533L498.422 77.5996Z" fill="#EDFDFB"/>
<path d="M44.4531 97V24.8125H60.0801C63.7168 24.8125 66.6152 25.373 68.7754 26.4941C70.9355 27.5879 72.4941 29.3379 73.4512 31.7441C74.4355 34.123 74.9277 37.2539 74.9277 41.1367V43.3516C74.9277 47.0977 74.4355 50.1875 73.4512 52.6211C72.4941 55.0273 70.8809 56.709 68.6113 57.666C70.498 58.2949 72.002 59.4297 73.123 61.0703C74.2715 62.6836 75.0918 64.666 75.584 67.0176C76.0762 69.3418 76.3223 71.8984 76.3223 74.6875V76.5332C76.2949 81.3457 75.7344 85.2695 74.6406 88.3047C73.5469 91.3125 71.8379 93.5137 69.5137 94.9082C67.1895 96.3027 64.1543 97 60.4082 97H44.4531ZM55.4453 88.4688H59.3418C60.791 88.4688 61.9395 88.1543 62.7871 87.5254C63.6621 86.8691 64.291 85.7891 64.6738 84.2852C65.0566 82.7812 65.248 80.7305 65.248 78.1328V72.3086C65.248 68.8086 64.9062 66.2656 64.2227 64.6797C63.5664 63.0664 62.1855 62.2598 60.0801 62.2598H55.4453V88.4688ZM55.4453 54.0156H59.5059C60.4629 54.0156 61.2422 53.8789 61.8438 53.6055C62.4453 53.332 62.9102 52.8672 63.2383 52.2109C63.5664 51.5273 63.7852 50.584 63.8945 49.3809C64.0312 48.1777 64.0996 46.6465 64.0996 44.7871V40.4395C64.0996 38.498 63.9219 37.0215 63.5664 36.0098C63.2109 34.998 62.6641 34.3145 61.9258 33.959C61.2148 33.6035 60.2852 33.4258 59.1367 33.4258H55.4453V54.0156ZM84.8125 97V24.8125H109.012V34.2871H95.8047V55.2871H108.355V64.5566H95.8047V87.5254H109.504V97H84.8125ZM117.625 97V24.8125H128.617V87.6484H142.521V97H117.625ZM148.469 97V24.8125H159.461V87.6484H173.365V97H148.469ZM175.047 97L185.342 24.8125H199.861L210.812 97H200.559L198.836 84.1211H187.188L185.629 97H175.047ZM188.254 75.3027H197.688L192.848 39.0449H192.684L188.254 75.3027Z" fill="#EDFDFB"/>
<path d="M195.901 139V134.072H193.949V137.08H183.901V118.52H186.557V116.6H179.901V118.52H181.885V137.08H179.901V139H195.901ZM209.031 137.4C209.607 136.845 210.055 136.195 210.375 135.448C210.717 134.68 210.887 133.859 210.887 132.984C210.887 132.131 210.717 131.32 210.375 130.552C210.055 129.784 209.618 129.112 209.063 128.536C208.466 127.981 207.773 127.544 206.983 127.224C206.215 126.883 205.394 126.712 204.519 126.712C203.623 126.712 202.791 126.883 202.023 127.224C201.255 127.544 200.583 127.981 200.007 128.536C199.431 129.112 198.973 129.784 198.631 130.552C198.311 131.32 198.151 132.131 198.151 132.984C198.151 133.859 198.311 134.68 198.631 135.448C198.973 136.195 199.431 136.845 200.007 137.4C200.583 137.976 201.255 138.435 202.023 138.776C202.791 139.096 203.623 139.256 204.519 139.256C205.394 139.256 206.215 139.096 206.983 138.776C207.773 138.435 208.455 137.976 209.031 137.4ZM201.447 136.024C201.042 135.64 200.722 135.192 200.487 134.68C200.274 134.168 200.167 133.603 200.167 132.984C200.167 132.408 200.274 131.864 200.487 131.352C200.722 130.819 201.042 130.349 201.447 129.944C201.831 129.56 202.279 129.261 202.791 129.048C203.303 128.813 203.858 128.696 204.455 128.696C205.053 128.696 205.607 128.813 206.119 129.048C206.653 129.261 207.122 129.56 207.527 129.944C207.911 130.349 208.21 130.819 208.423 131.352C208.658 131.864 208.775 132.419 208.775 133.016C208.775 133.613 208.658 134.168 208.423 134.68C208.21 135.192 207.911 135.64 207.527 136.024C207.122 136.429 206.653 136.749 206.119 136.984C205.607 137.197 205.053 137.304 204.455 137.304C203.858 137.304 203.303 137.197 202.791 136.984C202.279 136.749 201.831 136.429 201.447 136.024ZM227.136 128.92H229.632V127H223.136V128.92H225.024C224.363 130.157 223.712 131.384 223.072 132.6C222.432 133.816 221.877 135.011 221.408 136.184C220.917 134.989 220.352 133.784 219.712 132.568C219.093 131.352 218.453 130.136 217.792 128.92H219.648V127H213.12V128.92H215.712C216.672 130.733 217.621 132.536 218.56 134.328C219.499 136.12 220.448 137.923 221.408 139.736C222.368 137.923 223.317 136.131 224.256 134.36C225.216 132.568 226.176 130.755 227.136 128.92ZM238.206 128.696C238.846 128.696 239.422 128.867 239.934 129.208C240.446 129.528 240.873 129.965 241.214 130.52C239.998 130.968 238.782 131.427 237.566 131.896C236.371 132.365 235.166 132.835 233.95 133.304C233.886 132.707 233.939 132.141 234.11 131.608C234.281 131.075 234.526 130.605 234.846 130.2C235.251 129.731 235.731 129.368 236.286 129.112C236.862 128.835 237.502 128.696 238.206 128.696ZM242.334 137.56L241.086 136.12C240.723 136.504 240.297 136.803 239.806 137.016C239.315 137.208 238.782 137.304 238.206 137.304C237.374 137.304 236.638 137.112 235.998 136.728C235.358 136.344 234.857 135.832 234.494 135.192C236.051 134.595 237.598 134.008 239.134 133.432C240.67 132.835 242.217 132.237 243.774 131.64C243.582 130.936 243.305 130.285 242.942 129.688C242.601 129.091 242.195 128.568 241.726 128.12C241.235 127.693 240.691 127.352 240.094 127.096C239.497 126.84 238.867 126.712 238.206 126.712C237.331 126.712 236.499 126.883 235.71 127.224C234.942 127.544 234.281 127.981 233.726 128.536C233.15 129.112 232.691 129.784 232.35 130.552C232.03 131.32 231.87 132.131 231.87 132.984C231.87 133.859 232.03 134.68 232.35 135.448C232.691 136.195 233.15 136.856 233.726 137.432C234.281 137.987 234.942 138.435 235.71 138.776C236.499 139.096 237.331 139.256 238.206 139.256C239.038 139.256 239.795 139.107 240.478 138.808C241.182 138.509 241.801 138.093 242.334 137.56ZM270.881 139V137.08H268.481V127H266.817C266.796 127.363 266.764 127.725 266.721 128.088C266.7 128.451 266.689 128.803 266.689 129.144C266.433 128.547 265.91 127.992 265.121 127.48C264.332 126.968 263.329 126.712 262.113 126.712C261.217 126.712 260.374 126.883 259.585 127.224C258.817 127.565 258.156 128.024 257.601 128.6C257.025 129.155 256.566 129.816 256.225 130.584C255.905 131.352 255.745 132.163 255.745 133.016C255.745 133.869 255.905 134.68 256.225 135.448C256.566 136.195 257.025 136.845 257.601 137.4C258.156 137.976 258.817 138.435 259.585 138.776C260.374 139.096 261.217 139.256 262.113 139.256C262.753 139.256 263.329 139.181 263.841 139.032C264.374 138.883 264.844 138.68 265.249 138.424C265.633 138.211 265.942 137.976 266.177 137.72C266.433 137.464 266.604 137.229 266.689 137.016C266.689 137.208 266.689 137.379 266.689 137.528C266.689 137.677 266.689 137.848 266.689 138.04V139H270.881ZM262.113 128.696C262.71 128.696 263.265 128.803 263.777 129.016C264.31 129.208 264.769 129.496 265.153 129.88C265.558 130.243 265.878 130.701 266.113 131.256C266.348 131.789 266.465 132.365 266.465 132.984C266.465 133.603 266.348 134.189 266.113 134.744C265.878 135.277 265.558 135.736 265.153 136.12C264.769 136.483 264.31 136.771 263.777 136.984C263.265 137.197 262.71 137.304 262.113 137.304C261.537 137.304 261.004 137.208 260.513 137.016C260.044 136.824 259.628 136.568 259.265 136.248C258.796 135.864 258.433 135.395 258.177 134.84C257.921 134.264 257.793 133.645 257.793 132.984C257.793 132.387 257.889 131.843 258.081 131.352C258.273 130.84 258.561 130.392 258.945 130.008C259.308 129.581 259.766 129.261 260.321 129.048C260.876 128.813 261.473 128.696 262.113 128.696ZM280.384 139V137.08H277.856V128.984H281.28V127H277.856V119.192H275.84V127H273.12V128.984H275.84V139H280.384ZM299.776 139V137.08H297.056V128.984H300.96V127H297.056V122.488C297.056 121.592 297.184 120.803 297.44 120.12C297.717 119.437 298.101 118.861 298.592 118.392C299.061 117.923 299.605 117.571 300.224 117.336C300.843 117.08 301.515 116.931 302.24 116.888V114.968C301.237 115.011 300.288 115.203 299.392 115.544C298.517 115.864 297.76 116.344 297.12 116.984C296.48 117.603 295.968 118.371 295.584 119.288C295.221 120.205 295.04 121.261 295.04 122.456V127H293.12V128.984H295.072V137.08H293.12V139H299.776ZM310.026 139V137.08H307.722V127H303.37V128.92H305.706V137.08H303.37V139H310.026ZM308.106 122.552C308.106 122.147 307.967 121.816 307.69 121.56C307.413 121.283 307.103 121.144 306.762 121.144C306.421 121.144 306.101 121.283 305.802 121.56C305.525 121.816 305.386 122.147 305.386 122.552C305.386 122.936 305.525 123.267 305.802 123.544C306.101 123.8 306.421 123.928 306.762 123.928C307.103 123.928 307.413 123.8 307.69 123.544C307.967 123.267 308.106 122.936 308.106 122.552ZM318.932 139V137.08H316.756V132.824C316.756 132.163 316.895 131.565 317.172 131.032C317.471 130.477 317.866 130.019 318.356 129.656C318.74 129.357 319.188 129.133 319.7 128.984C320.212 128.813 320.756 128.728 321.332 128.728L321.46 126.744C321.055 126.744 320.628 126.819 320.18 126.968C319.754 127.117 319.316 127.341 318.868 127.64C318.42 127.917 318.004 128.269 317.62 128.696C317.236 129.101 316.916 129.571 316.66 130.104C316.618 129.656 316.596 129.421 316.596 129.4C316.618 129.357 316.607 129.112 316.564 128.664L316.468 127H312.532V128.92H314.74V137.08H312.276V139H318.932ZM331.234 137.912C331.532 137.528 331.746 137.123 331.874 136.696C332.002 136.269 332.066 135.896 332.066 135.576C332.066 134.893 331.938 134.339 331.682 133.912C331.426 133.485 331.095 133.133 330.69 132.856C330.306 132.6 329.879 132.387 329.41 132.216C328.94 132.024 328.503 131.843 328.098 131.672C327.692 131.523 327.34 131.341 327.042 131.128C326.764 130.915 326.615 130.627 326.594 130.264C326.572 130.008 326.604 129.784 326.69 129.592C326.775 129.4 326.892 129.229 327.042 129.08C327.212 128.973 327.404 128.888 327.618 128.824C327.852 128.76 328.087 128.728 328.322 128.728C328.599 128.728 328.855 128.76 329.09 128.824C329.324 128.867 329.548 128.941 329.762 129.048V130.584H331.586V127.992C331.372 127.757 331.116 127.565 330.818 127.416C330.54 127.267 330.252 127.139 329.954 127.032C329.634 126.925 329.324 126.851 329.026 126.808C328.748 126.765 328.492 126.744 328.258 126.744C327.874 126.744 327.458 126.819 327.01 126.968C326.562 127.096 326.156 127.299 325.794 127.576C325.431 127.853 325.132 128.216 324.898 128.664C324.663 129.091 324.546 129.613 324.546 130.232C324.546 130.957 324.684 131.533 324.962 131.96C325.239 132.365 325.58 132.685 325.986 132.92C326.412 133.155 326.86 133.347 327.33 133.496C327.82 133.624 328.268 133.773 328.674 133.944C329.079 134.093 329.399 134.296 329.634 134.552C329.89 134.787 330.018 135.139 330.018 135.608C330.018 135.907 329.964 136.163 329.858 136.376C329.751 136.568 329.623 136.728 329.474 136.856C329.26 137.005 329.036 137.112 328.802 137.176C328.567 137.24 328.332 137.272 328.098 137.272C327.671 137.272 327.287 137.251 326.946 137.208C326.626 137.165 326.306 137.048 325.986 136.856V135.416H324.162V138.008C324.631 138.477 325.207 138.808 325.89 139C326.594 139.171 327.308 139.256 328.034 139.256C328.823 139.256 329.474 139.128 329.986 138.872C330.519 138.616 330.935 138.296 331.234 137.912ZM341.447 139V137.08H338.919V128.984H342.343V127H338.919V119.192H336.903V127H334.183V128.984H336.903V139H341.447ZM361.703 137.912C362.001 137.528 362.215 137.123 362.343 136.696C362.471 136.269 362.535 135.896 362.535 135.576C362.535 134.893 362.407 134.339 362.151 133.912C361.895 133.485 361.564 133.133 361.159 132.856C360.775 132.6 360.348 132.387 359.879 132.216C359.409 132.024 358.972 131.843 358.567 131.672C358.161 131.523 357.809 131.341 357.511 131.128C357.233 130.915 357.084 130.627 357.062 130.264C357.041 130.008 357.073 129.784 357.159 129.592C357.244 129.4 357.361 129.229 357.511 129.08C357.681 128.973 357.873 128.888 358.087 128.824C358.321 128.76 358.556 128.728 358.791 128.728C359.068 128.728 359.324 128.76 359.559 128.824C359.793 128.867 360.017 128.941 360.231 129.048V130.584H362.055V127.992C361.841 127.757 361.585 127.565 361.286 127.416C361.009 127.267 360.721 127.139 360.423 127.032C360.103 126.925 359.793 126.851 359.495 126.808C359.217 126.765 358.961 126.744 358.727 126.744C358.343 126.744 357.927 126.819 357.479 126.968C357.031 127.096 356.625 127.299 356.263 127.576C355.9 127.853 355.601 128.216 355.367 128.664C355.132 129.091 355.015 129.613 355.015 130.232C355.015 130.957 355.153 131.533 355.431 131.96C355.708 132.365 356.049 132.685 356.455 132.92C356.881 133.155 357.329 133.347 357.799 133.496C358.289 133.624 358.737 133.773 359.143 133.944C359.548 134.093 359.868 134.296 360.103 134.552C360.359 134.787 360.487 135.139 360.487 135.608C360.487 135.907 360.433 136.163 360.327 136.376C360.22 136.568 360.092 136.728 359.943 136.856C359.729 137.005 359.505 137.112 359.271 137.176C359.036 137.24 358.801 137.272 358.567 137.272C358.14 137.272 357.756 137.251 357.415 137.208C357.095 137.165 356.775 137.048 356.455 136.856V135.416H354.631V138.008C355.1 138.477 355.676 138.808 356.359 139C357.063 139.171 357.777 139.256 358.503 139.256C359.292 139.256 359.943 139.128 360.455 138.872C360.988 138.616 361.404 138.296 361.703 137.912ZM371.307 139V137.08H369.067V115H364.875V116.92H367.051V137.08H364.651V139H371.307ZM380.214 139V137.08H377.91V127H373.558V128.92H375.894V137.08H373.558V139H380.214ZM378.294 122.552C378.294 122.147 378.155 121.816 377.878 121.56C377.6 121.283 377.291 121.144 376.95 121.144C376.608 121.144 376.288 121.283 375.99 121.56C375.712 121.816 375.574 122.147 375.574 122.552C375.574 122.936 375.712 123.267 375.99 123.544C376.288 123.8 376.608 123.928 376.95 123.928C377.291 123.928 377.6 123.8 377.878 123.544C378.155 123.267 378.294 122.936 378.294 122.552ZM392.8 137.88L391.552 136.344C391.168 136.664 390.741 136.909 390.272 137.08C389.824 137.229 389.333 137.304 388.8 137.304C388.202 137.304 387.637 137.197 387.104 136.984C386.592 136.749 386.144 136.451 385.76 136.088C385.354 135.704 385.034 135.245 384.8 134.712C384.586 134.179 384.48 133.603 384.48 132.984C384.48 132.344 384.597 131.757 384.832 131.224C385.066 130.691 385.397 130.221 385.824 129.816C386.186 129.453 386.624 129.176 387.136 128.984C387.648 128.792 388.202 128.696 388.8 128.696C389.205 128.696 389.589 128.749 389.952 128.856C390.336 128.941 390.688 129.08 391.008 129.272V131.544H392.832V128.088C392.298 127.661 391.69 127.331 391.008 127.096C390.325 126.84 389.589 126.712 388.8 126.712C387.904 126.712 387.072 126.883 386.304 127.224C385.536 127.544 384.874 127.992 384.32 128.568C383.722 129.123 383.264 129.784 382.944 130.552C382.624 131.32 382.464 132.131 382.464 132.984C382.464 133.859 382.624 134.68 382.944 135.448C383.285 136.195 383.744 136.845 384.32 137.4C384.874 137.976 385.536 138.435 386.304 138.776C387.072 139.096 387.904 139.256 388.8 139.256C389.568 139.256 390.282 139.139 390.944 138.904C391.605 138.648 392.224 138.307 392.8 137.88ZM401.394 128.696C402.034 128.696 402.61 128.867 403.122 129.208C403.634 129.528 404.06 129.965 404.402 130.52C403.186 130.968 401.97 131.427 400.754 131.896C399.559 132.365 398.354 132.835 397.138 133.304C397.074 132.707 397.127 132.141 397.298 131.608C397.468 131.075 397.714 130.605 398.034 130.2C398.439 129.731 398.919 129.368 399.474 129.112C400.05 128.835 400.69 128.696 401.394 128.696ZM405.522 137.56L404.274 136.12C403.911 136.504 403.484 136.803 402.994 137.016C402.503 137.208 401.97 137.304 401.394 137.304C400.562 137.304 399.826 137.112 399.186 136.728C398.546 136.344 398.044 135.832 397.682 135.192C399.239 134.595 400.786 134.008 402.322 133.432C403.858 132.835 405.404 132.237 406.962 131.64C406.77 130.936 406.492 130.285 406.13 129.688C405.788 129.091 405.383 128.568 404.914 128.12C404.423 127.693 403.879 127.352 403.282 127.096C402.684 126.84 402.055 126.712 401.394 126.712C400.519 126.712 399.687 126.883 398.898 127.224C398.13 127.544 397.468 127.981 396.914 128.536C396.338 129.112 395.879 129.784 395.538 130.552C395.218 131.32 395.058 132.131 395.058 132.984C395.058 133.859 395.218 134.68 395.538 135.448C395.879 136.195 396.338 136.856 396.914 137.432C397.468 137.987 398.13 138.435 398.898 138.776C399.687 139.096 400.519 139.256 401.394 139.256C402.226 139.256 402.983 139.107 403.666 138.808C404.37 138.509 404.988 138.093 405.522 137.56Z" fill="#EDFDFB"/>
<path d="M273.565 0.618679C267.91 2.56161 264.994 7.90468 265.171 15.9678C265.347 20.9223 264.199 24.8082 254.125 53.3693C243.167 84.8448 241.311 92.228 244.139 93.3937C244.669 93.6852 254.036 90.6736 264.817 86.6906L284.435 79.5017L285.849 81.8333C286.732 83.3876 288.058 84.1648 289.737 84.1648C292.653 84.1648 293.802 82.9019 294.685 78.6274C295.215 75.5187 295.304 75.5187 315.717 68.0384C339.664 59.2952 340.636 58.9067 342.492 54.9236C344.966 49.6777 344.348 44.0432 340.725 38.603C330.828 23.8367 310.415 7.90468 294.685 2.65876C287.704 0.230093 277.277 -0.741374 273.565 0.618679ZM287.881 5.08742C296.806 7.1275 305.643 11.2077 313.773 17.0365C320.223 21.7966 332.241 33.1628 332.241 34.62C332.241 35.0086 330.739 35.5915 328.883 35.9801C325.26 36.5629 322.256 39.3802 320.842 43.4603L320.047 45.9862L314.303 39.8659C302.638 27.334 289.118 20.1452 272.859 17.6193C268.794 17.0365 268.617 16.9393 268.617 13.8306C268.617 10.2362 271.356 5.76745 274.272 4.50454C277.1 3.24164 280.37 3.33879 287.881 5.08742ZM281.43 23.6424C288.853 25.6825 298.132 30.637 304.582 35.9801C310.945 41.3231 319.34 51.1349 318.279 52.3007C317.926 52.6893 312.447 55.0208 306.173 57.4495C299.457 60.0724 294.067 62.6954 293.183 63.8611C292.034 65.3183 291.592 67.6499 291.592 71.9243C291.592 81.3475 289.118 83.1933 287.351 75.2273C286.821 72.8958 285.849 70.1757 285.142 69.2042C284.17 67.747 284.081 66.6784 284.876 64.6383C285.583 62.5011 285.495 61.141 284.346 58.6152C279.751 48.1234 260.31 51.0378 260.31 62.3068C260.31 65.9012 261.636 68.1356 265.436 70.6614L268.087 72.41L265.436 73.4787C259.162 76.1988 248.734 80.1818 248.557 79.8903C248.381 79.7932 251.297 71.1471 255.008 60.7524C258.72 50.3578 262.166 40.8374 262.608 39.4773L263.492 37.0487L264.64 40.1574C266.143 43.9461 271.621 47.2491 276.305 47.2491C280.458 47.2491 286.732 44.1404 287.969 41.6146C292.211 32.8714 283.551 24.4196 273.035 26.9454C270.914 27.5283 268.352 28.6941 267.38 29.5684C265.966 30.9284 265.789 30.9284 266.143 29.7627C269.059 20.6309 268.617 21.2138 272.505 21.6995C274.538 21.9909 278.514 22.8653 281.43 23.6424ZM282.314 31.997C288.941 35.6886 284.17 43.9461 275.951 43.0718C268.794 42.2946 265.436 37.243 269.412 33.2599C272.682 29.957 277.807 29.4712 282.314 31.997ZM335.776 39.9631C338.957 41.8089 340.195 44.1404 340.195 48.7063C340.195 54.4379 337.985 55.8951 316.335 64.0554C305.378 68.2327 296.099 71.5357 295.746 71.5357C295.304 71.5357 295.127 70.5643 295.304 69.3985C295.569 67.067 297.248 66.1927 315.717 58.4209L324.377 54.8265L323.847 51.1349C323.14 46.569 324.995 42.1003 328.53 40.0602C331.623 38.2144 332.595 38.2144 335.776 39.9631ZM278.337 57.4495C281.342 59.1981 282.314 61.9182 280.988 64.7355C278.249 70.37 265.347 69.5928 263.933 63.6668C263.58 62.2096 264.11 60.7524 265.966 58.8095C268.882 55.6037 274.007 55.0208 278.337 57.4495ZM283.463 73.9644C283.639 75.713 281.607 76.6845 265.789 82.5133C255.892 86.1077 247.497 89.0221 247.144 89.0221C246.702 89.0221 246.525 88.0507 246.702 86.982C246.878 85.2334 249.618 83.8733 263.757 78.2388C273.035 74.5473 281.165 71.73 281.872 71.8272C282.579 71.9243 283.286 72.8958 283.463 73.9644Z" fill="#EDFDFB"/>
<line y1="7.75" x2="250.006" y2="7.75" stroke="#EDFDFB" stroke-width="5"/>
<line x1="327.002" y1="7.5" x2="577.008" y2="7.5" stroke="#EDFDFB" stroke-width="5"/>
</svg>
