<svg width="473" height="150" viewBox="0 0 473 150" fill="none" xmlns="http://www.w3.org/2000/svg">
<g clip-path="url(#clip0_23_30)">
<path d="M34.075 140.094H28.1985V125.66C38.2609 123.706 45.5298 115.834 44.5604 106.699L42.2265 84.7842C42.1237 83.769 41.1103 83 39.9206 83H7.08377C5.88968 83 4.87918 83.769 4.76902 84.7842L2.43811 106.699C1.46492 115.835 8.73611 123.704 18.8 125.673V140.094H12.922C9.67171 140.094 7.04558 142.294 7.04558 145.016C7.04558 145.554 7.57815 146 8.22088 146H38.7709C39.4136 146 39.9462 145.554 39.9462 145.016C39.95 142.296 37.3209 140.094 34.075 140.094ZM11.4151 88.9062H35.5907L36.6306 98.75H10.3664L11.4151 88.9062Z" fill="#04030F"/>
<path d="M71 92.4317C71 88.2707 74.3115 84.7481 78.511 85.0141C94.9649 86.0553 109.395 91.7401 120.698 102.825C123.906 105.967 123.274 111.101 119.947 113.723L119.044 114.438L117.576 112.762L117.55 112.735C106.686 101.278 90.943 94.5521 74.2227 94.5521H71V92.4317V92.4317ZM71 98.3483V140.099C71 144.781 76.2022 147.463 79.8615 144.663L85.8111 140.11V140.118C85.8111 141.126 86.2009 142.092 86.8948 142.805C87.5887 143.518 88.5298 143.918 89.5111 143.918C90.4924 143.918 91.4335 143.518 92.1274 142.805C92.8213 142.092 93.2111 141.126 93.2111 140.118V132.51C93.2148 132.029 93.3967 131.566 93.7198 131.217C94.043 130.868 94.4833 130.657 94.9516 130.629C95.42 130.6 95.8814 130.756 96.2424 131.063C96.6035 131.371 96.8372 131.808 96.8963 132.286V134.414C96.8963 135.422 97.2861 136.389 97.98 137.101C98.6739 137.814 99.615 138.214 100.596 138.214C101.578 138.214 102.519 137.814 103.213 137.101C103.906 136.389 104.296 135.422 104.296 134.414V125.91C107.349 123.611 112.014 119.967 116.099 116.759L114.875 115.357C104.74 104.687 89.981 98.3483 74.219 98.3483H71ZM86.7176 108.768C86.7174 109.141 86.6456 109.51 86.5064 109.855C86.3671 110.199 86.1632 110.512 85.9062 110.776C85.6492 111.04 85.3442 111.249 85.0085 111.391C84.6729 111.534 84.3132 111.607 83.95 111.607C83.5868 111.606 83.2272 111.533 82.8917 111.39C82.5563 111.247 82.2515 111.037 81.9949 110.773C81.7382 110.509 81.5347 110.196 81.3959 109.851C81.2572 109.507 81.1859 109.137 81.1861 108.764C81.1861 108.011 81.4775 107.288 81.9962 106.756C82.5148 106.223 83.2183 105.924 83.9518 105.924C84.6854 105.924 85.3888 106.223 85.9075 106.756C86.4262 107.288 86.7176 108.011 86.7176 108.764V108.768ZM97.7251 116.368C97.7251 117.121 97.4337 117.844 96.915 118.376C96.3964 118.909 95.6929 119.208 94.9593 119.208C94.2258 119.208 93.5223 118.909 93.0037 118.376C92.485 117.844 92.1936 117.121 92.1936 116.368C92.1936 115.615 92.485 114.892 93.0037 114.359C93.5223 113.827 94.2258 113.527 94.9593 113.527C95.6929 113.527 96.3964 113.827 96.915 114.359C97.4337 114.892 97.7251 115.615 97.7251 116.368V116.368ZM86.7472 125.876C86.7472 126.633 86.4542 127.359 85.9328 127.895C85.4113 128.43 84.7041 128.731 83.9666 128.731C83.2292 128.731 82.522 128.43 82.0005 127.895C81.479 127.359 81.1861 126.633 81.1861 125.876C81.1861 125.118 81.479 124.392 82.0005 123.856C82.522 123.321 83.2292 123.02 83.9666 123.02C84.7041 123.02 85.4113 123.321 85.9328 123.856C86.4542 124.392 86.7472 125.118 86.7472 125.876V125.876Z" fill="#04030F"/>
<path d="M317.062 94.875V85.375C317.062 84.7451 317.319 84.141 317.776 83.6956C318.234 83.2502 318.854 83 319.5 83C320.146 83 320.766 83.2502 321.224 83.6956C321.681 84.141 321.938 84.7451 321.938 85.375V94.875C321.938 95.5049 321.681 96.109 321.224 96.5544C320.766 96.9998 320.146 97.25 319.5 97.25C318.854 97.25 318.234 96.9998 317.776 96.5544C317.319 96.109 317.062 95.5049 317.062 94.875ZM329.25 97.25C329.896 97.25 330.516 96.9998 330.974 96.5544C331.431 96.109 331.688 95.5049 331.688 94.875V85.375C331.688 84.7451 331.431 84.141 330.974 83.6956C330.516 83.2502 329.896 83 329.25 83C328.604 83 327.984 83.2502 327.526 83.6956C327.069 84.141 326.812 84.7451 326.812 85.375V94.875C326.812 95.5049 327.069 96.109 327.526 96.5544C327.984 96.9998 328.604 97.25 329.25 97.25ZM339 97.25C339.646 97.25 340.266 96.9998 340.724 96.5544C341.181 96.109 341.438 95.5049 341.438 94.875V85.375C341.438 84.7451 341.181 84.141 340.724 83.6956C340.266 83.2502 339.646 83 339 83C338.354 83 337.734 83.2502 337.276 83.6956C336.819 84.141 336.562 84.7451 336.562 85.375V94.875C336.562 95.5049 336.819 96.109 337.276 96.5544C337.734 96.9998 338.354 97.25 339 97.25ZM368.25 113.875V116.25C368.248 119.27 367.066 122.176 364.943 124.376C362.821 126.577 359.917 127.907 356.824 128.095C355.145 132.671 352.317 136.763 348.598 140H356.062C356.709 140 357.329 140.25 357.786 140.696C358.243 141.141 358.5 141.745 358.5 142.375C358.5 143.005 358.243 143.609 357.786 144.054C357.329 144.5 356.709 144.75 356.062 144.75H302.438C301.791 144.75 301.171 144.5 300.714 144.054C300.257 143.609 300 143.005 300 142.375C300 141.745 300.257 141.141 300.714 140.696C301.171 140.25 301.791 140 302.438 140H309.902C306.796 137.321 304.308 134.03 302.601 130.346C300.894 126.662 300.008 122.667 300 118.625V104.375C300 103.745 300.257 103.141 300.714 102.696C301.171 102.25 301.791 102 302.438 102H356.062C359.295 102 362.395 103.251 364.68 105.478C366.966 107.705 368.25 110.726 368.25 113.875ZM363.375 113.875C363.373 112.403 362.904 110.968 362.031 109.766C361.158 108.565 359.924 107.656 358.5 107.166V118.625C358.502 120.117 358.38 121.606 358.134 123.078C359.647 122.643 360.974 121.743 361.919 120.512C362.863 119.282 363.374 117.787 363.375 116.25V113.875Z" fill="#04030F"/>
<path d="M433.583 98.7083C440.368 98.7083 441.5 93.9067 441.5 89.9507C441.5 85.9875 438.579 79 433.583 79C428.588 79 425.667 85.9911 425.667 89.9507C425.667 93.9067 426.799 98.7083 433.583 98.7083ZM399.938 110.354C399.938 108.216 400.876 106.165 402.546 104.653C404.216 103.141 406.482 102.292 408.844 102.292H458.323C460.685 102.292 462.95 103.141 464.621 104.653C466.291 106.165 467.229 108.216 467.229 110.354V113.49L452.845 123.258C452.063 123.788 451.126 124.097 450.152 124.146C449.177 124.195 448.208 123.982 447.366 123.534L439.291 119.234C437.553 118.309 435.565 117.839 433.55 117.877C431.534 117.915 429.57 118.459 427.875 119.449L420.905 123.519C420.109 123.984 419.182 124.232 418.235 124.234C417.287 124.236 416.359 123.992 415.561 123.53L399.938 114.504V110.354ZM399.938 120.882V139.917H396.969C396.181 139.917 395.426 140.2 394.87 140.704C394.313 141.208 394 141.891 394 142.604C394 143.317 394.313 144.001 394.87 144.505C395.426 145.009 396.181 145.292 396.969 145.292H470.198C470.985 145.292 471.74 145.009 472.297 144.505C472.854 144.001 473.167 143.317 473.167 142.604C473.167 141.891 472.854 141.208 472.297 140.704C471.74 140.2 470.985 139.917 470.198 139.917H467.229V120.208L456.407 127.554C454.689 128.721 452.629 129.401 450.485 129.51C448.341 129.62 446.209 129.152 444.358 128.167L436.283 123.867C435.493 123.446 434.589 123.233 433.673 123.25C432.757 123.267 431.864 123.514 431.094 123.964L424.127 128.034C422.375 129.058 420.336 129.605 418.251 129.61C416.167 129.615 414.124 129.078 412.367 128.063L399.938 120.878V120.882Z" fill="#04030F"/>
<path d="M159.148 31.2147L249.816 125.481C251.537 127.27 252.503 129.696 252.503 132.225C252.503 134.755 251.537 137.181 249.816 138.97C248.095 140.758 245.762 141.762 243.329 141.762C240.896 141.762 238.563 140.758 236.842 138.97L214.694 115.546C213.244 114.016 212.431 111.955 212.43 109.807V108.392C212.43 107.308 212.223 106.234 211.821 105.234C211.419 104.233 210.829 103.325 210.087 102.564L207.227 99.8183C206.256 98.887 205.076 98.2246 203.794 97.8919C202.513 97.5593 201.172 97.5671 199.894 97.9147C197.879 98.4615 195.761 98.4509 193.751 97.8841C191.741 97.3172 189.909 96.2137 188.436 94.6832L167.412 72.8226C154.94 59.8556 150.35 40.2747 159.148 31.2147Z" stroke="#04030F" stroke-width="6" stroke-linejoin="round"/>
<path d="M194.219 113.156L169.678 138.814C167.832 140.732 165.329 141.81 162.719 141.81C160.109 141.81 157.605 140.732 155.759 138.814V138.814C153.914 136.895 152.877 134.292 152.877 131.578C152.877 128.864 153.914 126.262 155.759 124.342L176.5 102.922M243.438 27.1875L224.427 46.9526C222.964 48.4732 221.803 50.2786 221.012 52.2655C220.22 54.2525 219.813 56.3821 219.813 58.5328V62.3349C219.813 62.8728 219.711 63.4055 219.513 63.9025C219.315 64.3995 219.024 64.851 218.658 65.2312L215.875 68.125L243.438 27.1875ZM223.75 76.3125L226.533 73.4187C226.899 73.0382 227.333 72.7364 227.811 72.5305C228.289 72.3246 228.802 72.2187 229.319 72.2187H232.976C235.045 72.2188 237.093 71.7951 239.004 70.972C240.915 70.1488 242.652 68.9423 244.114 67.4214L263.125 47.6562L223.75 76.3125ZM253.281 37.4219L233.594 57.8906L253.281 37.4219Z" stroke="#04030F" stroke-width="4" stroke-linecap="square" stroke-linejoin="round"/>
</g>
<defs>
<clipPath id="clip0_23_30">
<rect width="473" height="150" fill="white"/>
</clipPath>
</defs>
</svg>
